<svg width="41" height="40" viewBox="0 0 41 40" fill="none" xmlns="http://www.w3.org/2000/svg">
<ellipse cx="20.8909" cy="20" rx="19.9481" ry="20" fill="#665A87"/>
<path d="M8.6073 18.8307H31.7059C32.2665 18.8307 32.7209 19.2863 32.7209 19.8484C32.7209 20.4105 32.2665 20.8661 31.7059 20.8661H8.6073C8.04667 20.8661 7.59224 20.4105 7.59224 19.8484C7.59224 19.2864 8.04667 18.8307 8.6073 18.8307Z" fill="white"/>
<path d="M8.6073 11.1111H31.7059C32.2665 11.1111 32.7209 11.5668 32.7209 12.1288C32.7209 12.6909 32.2665 13.1465 31.7059 13.1465H8.6073C8.04667 13.1465 7.59224 12.6909 7.59224 12.1288C7.59224 11.5668 8.04667 11.1111 8.6073 11.1111Z" fill="white"/>
<path d="M8.6073 26.5503H31.7059C32.2665 26.5503 32.7209 27.0059 32.7209 27.568C32.7209 28.1301 32.2665 28.5857 31.7059 28.5857H8.6073C8.04667 28.5857 7.59224 28.1301 7.59224 27.568C7.59224 27.0059 8.04667 26.5503 8.6073 26.5503Z" fill="white"/>
</svg>
