<svg width="21" height="22" viewBox="0 0 21 22" fill="none" xmlns="http://www.w3.org/2000/svg">
<path opacity="0.6" fill-rule="evenodd" clip-rule="evenodd" d="M20.5 11C20.5 11.676 20.4315 12.345 20.2985 12.9976C20.7547 13.8345 21 14.7796 21 15.75C21 17.275 20.3942 18.7375 19.3159 19.8159C18.2375 20.8942 16.775 21.5 15.25 21.5C14.2796 21.5 13.3345 21.2547 12.4976 20.7985C11.845 20.9315 11.176 21 10.5 21C7.84784 21 5.3043 19.9464 3.42893 18.0711C1.55357 16.1957 0.5 13.6522 0.5 11C0.5 10.324 0.568456 9.655 0.701525 9.00235C0.604035 8.82353 0.515931 8.63931 0.437693 8.45043C0.148728 7.75281 0 7.0051 0 6.25C0 5.4949 0.148728 4.74719 0.437693 4.04957C0.726657 3.35195 1.1502 2.71807 1.68414 2.18414C2.21807 1.6502 2.85195 1.22666 3.54957 0.937693C4.24719 0.648728 4.9949 0.5 5.75 0.5C6.5051 0.5 7.25281 0.648728 7.95043 0.937693C8.13931 1.01593 8.32353 1.10404 8.50235 1.20152C9.155 1.06846 9.82397 1 10.5 1C13.1522 1 15.6957 2.05357 17.5711 3.92893C19.4464 5.8043 20.5 8.34784 20.5 11ZM6 13.5995C6 14.8495 7.5 16.5 10.801 16.5C13.949 16.5 15.449 14.949 15.5 12.8495C15.5 11.5 14.949 10.0995 12.5505 9.551L10.3495 9.051C9.4995 8.85 8.5505 8.6 8.5505 7.801C8.5505 7.0005 9.25 6.4495 10.449 6.4495C11.8555 6.4495 12.3696 7.03344 12.7953 7.51705C13.0962 7.85883 13.353 8.1505 13.8495 8.1505C14.5 8.1505 15 7.75 15 7.0995C15 5.5995 12.6505 4.5 10.6 4.5C8.4005 4.5 6.051 5.4 6.051 7.949C6.051 9.199 6.5 10.5 8.8495 11.1L11.8005 11.85C12.699 12.1 12.9 12.6 12.9 13.051C12.9 13.801 12.15 14.551 10.8005 14.551C9.26602 14.551 8.73727 13.8633 8.29211 13.2843C7.96849 12.8634 7.68904 12.5 7.0995 12.5C6.449 12.5 6 12.949 6 13.5995Z" fill="white"/>
</svg>
