<?xml version="1.0" standalone="no"?><svg xmlns="http://www.w3.org/2000/svg" viewBox="0 0 1440 320"><path fill="#56295A" fill-opacity="1" d="M0,32L30,64C60,96,120,160,180,192C240,224,300,224,360,202.7C420,181,480,139,540,133.3C600,128,660,160,720,165.3C780,171,840,149,900,122.7C960,96,1020,64,1080,80C1140,96,1200,160,1260,181.3C1320,203,1380,181,1410,170.7L1440,160L1440,0L1410,0C1380,0,1320,0,1260,0C1200,0,1140,0,1080,0C1020,0,960,0,900,0C840,0,780,0,720,0C660,0,600,0,540,0C480,0,420,0,360,0C300,0,240,0,180,0C120,0,60,0,30,0L0,0Z"></path></svg>