<svg width="342" height="83" viewBox="0 0 342 83" fill="none" xmlns="http://www.w3.org/2000/svg">
<g filter="url(#filter0_d)">
<path d="M222.713 63.9745C121.813 82.1499 77.0002 55.5209 44.5002 35.9166C25.8231 24.6504 15.2188 12.2274 4 0L336 -1.3648e-06C299.963 29.727 272.722 54.9663 222.713 63.9745Z" fill="url(#paint0_linear)"/>
</g>
<path d="M212.163 25.9629C213.796 26.2508 215.094 27.036 216.059 28.3186C217.049 29.6011 217.543 31.1847 217.543 33.0692C217.543 34.247 217.333 35.3202 216.913 36.2886C216.517 37.2833 215.935 38.1208 215.169 38.8014C214.426 39.5081 213.524 40.0446 212.46 40.4111C211.421 40.8037 210.258 41 208.972 41C207.092 41 205.447 40.5943 204.037 39.7829C202.627 38.9977 201.563 37.8984 200.846 36.4849L202.59 34.7967C203.109 35.9484 203.901 36.8645 204.964 37.545C206.028 38.2255 207.364 38.5658 208.972 38.5658C210.827 38.5658 212.287 38.0816 213.35 37.1131C214.414 36.1709 214.946 34.8098 214.946 33.0299C214.946 31.2239 214.389 29.7974 213.276 28.7504C212.163 27.7035 210.555 27.18 208.452 27.18H207.525V24.9028H208.527C210.431 24.9028 211.891 24.4448 212.905 23.5287C213.919 22.5864 214.426 21.3693 214.426 19.8774C214.426 19.0921 214.29 18.3985 214.018 17.7965C213.746 17.1945 213.363 16.6972 212.868 16.3046C212.398 15.8858 211.829 15.5717 211.161 15.3623C210.518 15.1529 209.813 15.0482 209.046 15.0482C207.636 15.0482 206.387 15.3885 205.298 16.069C204.235 16.7234 203.431 17.6395 202.887 18.8173L201.254 17.1683C201.551 16.4878 201.971 15.8727 202.515 15.3231C203.06 14.7472 203.678 14.263 204.371 13.8704C205.063 13.4778 205.83 13.1768 206.671 12.9674C207.512 12.7318 208.378 12.614 209.269 12.614C210.407 12.614 211.446 12.7841 212.386 13.1244C213.35 13.4647 214.179 13.9489 214.872 14.5771C215.564 15.1791 216.096 15.912 216.467 16.7757C216.863 17.6395 217.061 18.5948 217.061 19.6418C217.061 20.427 216.95 21.1861 216.727 21.919C216.504 22.6257 216.183 23.2669 215.762 23.8428C215.342 24.3924 214.822 24.8636 214.204 25.2562C213.61 25.6226 212.93 25.8582 212.163 25.9629Z" fill="url(#paint1_linear)"/>
<path d="M234.246 34.3618C234.82 34.3618 235.329 34.4948 235.773 34.7609C236.217 35.027 236.556 35.4012 236.791 35.8835C237.035 36.3658 237.157 36.9313 237.157 37.5799C237.157 38.2285 237.035 38.8023 236.791 39.3012C236.548 39.7919 236.204 40.1744 235.76 40.4488C235.325 40.7149 234.82 40.8479 234.246 40.8479C233.707 40.8479 233.241 40.7357 232.849 40.5112C232.467 40.2866 232.179 39.9623 231.988 39.5382V40.7606H231.192V31.5802H231.975V35.684C232.166 35.2515 232.458 34.9231 232.849 34.6986C233.241 34.474 233.707 34.3618 234.246 34.3618ZM234.155 40.1744C234.833 40.1744 235.364 39.9457 235.747 39.4883C236.13 39.031 236.321 38.3948 236.321 37.5799C236.321 36.7733 236.13 36.1455 235.747 35.6964C235.364 35.2474 234.829 35.0229 234.142 35.0229C233.454 35.0229 232.923 35.2474 232.549 35.6964C232.175 36.1455 231.988 36.7816 231.988 37.6049C231.988 38.4281 232.175 39.0642 232.549 39.5133C232.923 39.954 233.459 40.1744 234.155 40.1744Z" fill="black"/>
<path d="M246.997 34.5115L243.917 41.4093C243.612 42.0911 243.229 42.5901 242.768 42.9061C242.316 43.2304 241.746 43.459 241.058 43.5921L240.902 42.9934C241.528 42.852 241.998 42.6691 242.311 42.4445C242.633 42.22 242.903 41.8666 243.121 41.3843L243.395 40.7731L240.602 34.5115H241.45L243.812 39.9998L246.188 34.5115H246.997Z" fill="black"/>
<circle cx="223.605" cy="40.4313" r="0.632205" fill="black"/>
<path d="M187.661 40.684C186.548 40.684 185.562 40.4058 184.702 39.8494C183.859 39.2762 183.176 38.5597 182.654 37.6999V45.8175H180.934V27.2559H182.477V29.81C183.016 28.9839 183.716 28.318 184.576 27.8123C185.435 27.2896 186.371 27.0283 187.383 27.0283C188.293 27.0283 189.127 27.2222 189.886 27.6099C190.645 27.9808 191.302 28.4866 191.859 29.1272C192.415 29.751 192.845 30.4759 193.148 31.302C193.469 32.1281 193.629 32.9795 193.629 33.8561C193.629 34.7834 193.485 35.66 193.199 36.4861C192.912 37.3122 192.499 38.0371 191.96 38.6609C191.437 39.2847 190.805 39.782 190.063 40.1529C189.338 40.5069 188.537 40.684 187.661 40.684ZM187.18 39.1667C187.888 39.1667 188.529 39.0149 189.102 38.7115C189.692 38.408 190.19 38.0118 190.594 37.5229C191.016 37.0172 191.336 36.4524 191.555 35.8286C191.774 35.188 191.884 34.5305 191.884 33.8561C191.884 33.1481 191.757 32.4737 191.505 31.8331C191.252 31.1924 190.906 30.6277 190.468 30.1388C190.029 29.6499 189.507 29.2621 188.9 28.9755C188.31 28.6889 187.669 28.5456 186.978 28.5456C186.54 28.5456 186.076 28.6383 185.587 28.8238C185.115 28.9924 184.668 29.2284 184.247 29.5319C183.842 29.8185 183.488 30.1641 183.185 30.5687C182.898 30.9564 182.721 31.3695 182.654 31.8078V35.8539C182.856 36.3259 183.109 36.7643 183.412 37.1689C183.733 37.5735 184.087 37.9275 184.474 38.231C184.879 38.5176 185.309 38.7452 185.764 38.9138C186.219 39.0824 186.691 39.1667 187.18 39.1667Z" fill="black"/>
<path d="M159.418 40.684C158.457 40.684 157.58 40.5069 156.788 40.1529C155.996 39.782 155.304 39.2847 154.714 38.6609C154.141 38.0371 153.694 37.3122 153.374 36.4861C153.054 35.66 152.894 34.7918 152.894 33.8814C152.894 32.9542 153.054 32.0775 153.374 31.2515C153.711 30.4254 154.167 29.7004 154.74 29.0767C155.33 28.4529 156.021 27.9556 156.813 27.5847C157.606 27.2138 158.474 27.0283 159.418 27.0283C160.362 27.0283 161.23 27.2138 162.023 27.5847C162.832 27.9556 163.523 28.4529 164.096 29.0767C164.686 29.7004 165.142 30.4254 165.462 31.2515C165.799 32.0775 165.968 32.9542 165.968 33.8814C165.968 34.7918 165.808 35.66 165.487 36.4861C165.167 37.3122 164.712 38.0371 164.122 38.6609C163.548 39.2847 162.857 39.782 162.048 40.1529C161.256 40.5069 160.379 40.684 159.418 40.684ZM154.639 33.9067C154.639 34.6485 154.765 35.3397 155.018 35.9803C155.271 36.6041 155.608 37.1605 156.029 37.6494C156.468 38.1214 156.974 38.4923 157.547 38.762C158.137 39.0318 158.761 39.1667 159.418 39.1667C160.076 39.1667 160.691 39.0318 161.264 38.762C161.854 38.4754 162.368 38.0961 162.807 37.6241C163.245 37.1352 163.591 36.5704 163.843 35.9298C164.096 35.2891 164.223 34.5979 164.223 33.8561C164.223 33.1312 164.096 32.4484 163.843 31.8078C163.591 31.1503 163.245 30.5855 162.807 30.1135C162.368 29.6246 161.854 29.2453 161.264 28.9755C160.691 28.6889 160.076 28.5456 159.418 28.5456C158.761 28.5456 158.145 28.6889 157.572 28.9755C156.999 29.2453 156.493 29.6246 156.055 30.1135C155.616 30.6024 155.271 31.1756 155.018 31.8331C154.765 32.4737 154.639 33.1649 154.639 33.9067Z" fill="black"/>
<path d="M133.189 39.799C133.088 39.8496 132.936 39.917 132.734 40.0013C132.548 40.0856 132.329 40.1699 132.076 40.2542C131.823 40.3385 131.537 40.4143 131.216 40.4818C130.896 40.5492 130.559 40.5829 130.205 40.5829C129.834 40.5829 129.48 40.5323 129.143 40.4312C128.806 40.33 128.511 40.1783 128.258 39.976C128.005 39.7568 127.802 39.4871 127.651 39.1668C127.499 38.8465 127.423 38.4756 127.423 38.0541V28.6216H125.602V27.256H127.423V22.8053H129.143V27.256H132.177V28.6216H129.143V37.5736C129.176 38.0625 129.345 38.425 129.649 38.661C129.969 38.8802 130.331 38.9898 130.736 38.9898C131.225 38.9898 131.655 38.9139 132.026 38.7622C132.397 38.5936 132.633 38.4756 132.734 38.4081L133.189 39.799Z" fill="black"/>
<path d="M109.361 40.4313L104 27.2561H105.77L110.297 38.8381L114.849 27.2561H116.518L111.157 40.4313H109.361Z" fill="black"/>
<path fill-rule="evenodd" clip-rule="evenodd" d="M145.658 23.7989C146.068 24.0603 146.188 24.6048 145.927 25.0149C144.368 27.459 143.465 30.3611 143.465 33.4768C143.465 42.1818 150.522 49.2387 159.227 49.2387C167.117 49.2387 173.654 43.4406 174.808 35.8729C174.881 35.3921 175.33 35.0618 175.811 35.1351C176.292 35.2083 176.622 35.6575 176.549 36.1383C175.266 44.5533 168 51 159.227 51C149.549 51 141.704 43.1546 141.704 33.4768C141.704 30.0157 142.708 26.7865 144.442 24.0679C144.703 23.6578 145.247 23.5374 145.658 23.7989Z" fill="url(#paint2_linear)"/>
<path d="M149.709 17.2208C150.115 17.0222 150.584 17.3375 150.553 17.7884L149.756 29.3896C149.715 29.9936 148.897 30.1472 148.639 29.5994L146.159 24.329C146.069 24.1383 145.884 24.0104 145.674 23.9938L139.373 23.4944C138.778 23.4472 138.625 22.6443 139.161 22.3817L149.709 17.2208Z" fill="url(#paint3_linear)"/>
<path d="M156.104 11.2438C156.055 10.9545 156.252 10.6771 156.545 10.6235L159.723 10.0422C160.016 9.9886 160.293 10.1793 160.342 10.4686C160.391 10.7579 160.194 11.0353 159.901 11.0889L156.722 11.6703C156.43 11.7238 156.153 11.5331 156.104 11.2438Z" fill="#5C6ABF"/>
<path d="M155.012 9.56552C154.767 9.40725 154.712 9.07536 154.889 8.83955L156.754 6.21923C156.922 5.98532 157.259 5.92325 157.504 6.08152C157.739 6.25207 157.795 6.58396 157.628 6.81787L155.75 9.42975C155.585 9.67408 155.247 9.73614 155.012 9.56552Z" fill="#5C6ABF"/>
<path d="M147.759 7.84746C147.931 7.60703 148.265 7.54566 148.505 7.71034L151.114 9.49927C151.355 9.66395 151.41 9.99214 151.238 10.2326C151.066 10.473 150.732 10.5344 150.492 10.3697L147.883 8.58077C147.642 8.41609 147.587 8.08793 147.759 7.84746Z" fill="#5C6ABF"/>
<path d="M155.653 13.1949C155.825 12.9544 156.159 12.8931 156.399 13.0578L159.008 14.8467C159.248 15.0114 159.304 15.3396 159.132 15.58C158.96 15.8204 158.626 15.8818 158.386 15.7171L155.776 13.9282C155.536 13.7635 155.481 13.4354 155.653 13.1949Z" fill="#5C6ABF"/>
<path d="M152.382 8.72034L151.857 5.621C151.808 5.33549 152.003 5.0617 152.292 5.00888C152.581 4.95605 152.854 5.14435 152.902 5.42987L153.427 8.52921C153.476 8.81473 153.281 9.08851 152.992 9.14133C152.703 9.19416 152.43 9.00586 152.382 8.72034Z" fill="#5C6ABF"/>
<path d="M157.506 6.08788L155.011 9.5598C154.766 9.40176 154.709 9.07076 154.887 8.83578L156.755 6.22454C156.922 5.99143 157.261 5.92984 157.506 6.08788Z" fill="#5C6ABF"/>
<defs>
<filter id="filter0_d" x="0" y="-8.76392" width="341.729" height="90.9778" filterUnits="userSpaceOnUse" color-interpolation-filters="sRGB">
<feFlood flood-opacity="0" result="BackgroundImageFix"/>
<feColorMatrix in="SourceAlpha" type="matrix" values="0 0 0 0 0 0 0 0 0 0 0 0 0 0 0 0 0 0 127 0" result="hardAlpha"/>
<feOffset dy="4"/>
<feGaussianBlur stdDeviation="2"/>
<feColorMatrix type="matrix" values="0 0 0 0 0 0 0 0 0 0 0 0 0 0 0 0 0 0 0.25 0"/>
<feBlend mode="normal" in2="BackgroundImageFix" result="effect1_dropShadow"/>
<feBlend mode="normal" in="SourceGraphic" in2="effect1_dropShadow" result="shape"/>
</filter>
<linearGradient id="paint0_linear" x1="34.0001" y1="-116" x2="262.969" y2="67.4249" gradientUnits="userSpaceOnUse">
<stop stop-color="#F6A21E"/>
<stop offset="1" stop-color="#F1CA2D"/>
</linearGradient>
<linearGradient id="paint1_linear" x1="209.195" y1="12.614" x2="209.195" y2="41" gradientUnits="userSpaceOnUse">
<stop stop-color="#56295A"/>
<stop offset="1" stop-color="#5C6ABF"/>
</linearGradient>
<linearGradient id="paint2_linear" x1="142.292" y1="31.8963" x2="171.689" y2="14.1946" gradientUnits="userSpaceOnUse">
<stop/>
<stop offset="0.807292" stop-color="#3D3D3D" stop-opacity="0"/>
</linearGradient>
<linearGradient id="paint3_linear" x1="148.563" y1="18.9322" x2="138.957" y2="33.2128" gradientUnits="userSpaceOnUse">
<stop stop-color="#5C6ABF"/>
<stop offset="1" stop-color="#56295A"/>
</linearGradient>
</defs>
</svg>
